<svg xmlns="http://www.w3.org/2000/svg" width="63" height="20" viewBox="0 0 63 20">
    <g fill="none" fill-rule="nonzero">
        <path fill="#707070" d="M0 7.25V5.975h2.354v-2.25c0-1.267.321-2.204.964-2.813C3.96.305 4.833 0 5.934 0h1.528v1.275H6.135c-1.486 0-2.229.883-2.229 2.65v2.05h3.205V7.25H3.906V19.1H2.354V7.25H0z"/>
        <path fill="#DD5C3D" d="M10.016 2.75V.45h2.179v2.3z"/>
        <path fill="#707070" d="M10.367 19.1V5.975h1.527V19.1zM15.1 7.25V5.975h2.403V1.65h1.552v4.325h3.506V7.25h-3.506v8.125c0 .867.167 1.492.501 1.875.334.383.877.567 1.628.55l1.377-.025V19.1h-1.577c-1.119.017-1.979-.267-2.58-.85-.6-.583-.901-1.492-.901-2.725V7.25h-2.404zM24.664 12.525c0-2.067.518-3.75 1.553-5.05 1.035-1.3 2.446-1.95 4.232-1.95 1.135 0 2.111.317 2.93.95.817.633 1.377 1.4 1.677 2.3l-1.327.375a3.927 3.927 0 0 0-1.277-1.675 3.195 3.195 0 0 0-2.003-.675c-1.286 0-2.312.542-3.08 1.625-.768 1.083-1.152 2.45-1.152 4.1 0 1.75.396 3.146 1.19 4.187.792 1.042 1.806 1.563 3.042 1.563.801 0 1.536-.25 2.203-.75.668-.5 1.152-1.092 1.453-1.775l1.302.425c-.368.933-.994 1.73-1.878 2.387-.885.659-1.912.988-3.08.988-1.72 0-3.114-.637-4.182-1.913-1.068-1.275-1.603-2.979-1.603-5.112zM38.336 19.1V0h1.503v8.3h.05c.3-.733.843-1.38 1.627-1.938.785-.558 1.678-.837 2.68-.837 2.804 0 4.206 1.692 4.206 5.075v8.5H46.9v-8.225c0-2.717-1.002-4.075-3.005-4.075-1.068 0-2.011.442-2.83 1.325-.817.883-1.226 1.917-1.226 3.1V19.1h-1.503zM51.532 15.95c0-1.2.447-2.17 1.34-2.912s2.308-1.263 4.244-1.563c1.937-.317 3.18-.583 3.731-.8v-.75c0-.917-.321-1.67-.964-2.263-.642-.591-1.548-.887-2.717-.887-.8 0-1.573.187-2.316.563a5.51 5.51 0 0 0-1.865 1.512l-1.002-.8a6.924 6.924 0 0 1 2.254-1.825c.901-.467 1.87-.7 2.904-.7 1.82 0 3.143.45 3.97 1.35.826.9 1.239 2.108 1.239 3.625v8.6h-1.478v-2.375c-.283.75-.863 1.408-1.74 1.975-.876.567-1.89.85-3.042.85-1.42 0-2.533-.337-3.343-1.012-.81-.676-1.215-1.538-1.215-2.588zm1.553-.1c0 .667.284 1.237.851 1.713.568.475 1.352.712 2.354.712 1.252 0 2.325-.404 3.218-1.212.893-.809 1.34-1.838 1.34-3.088V11.9c-.752.233-2.004.483-3.757.75-1.402.233-2.42.608-3.055 1.125-.634.517-.951 1.208-.951 2.075z"/>
    </g>
</svg>
