<svg xmlns="http://www.w3.org/2000/svg" xmlns:xlink="http://www.w3.org/1999/xlink" width="375" height="311" viewBox="0 0 375 311">
    <defs>
        <path id="a" d="M.495.037H17.41v17.655H.495z"/>
        <path id="c" d="M.495.037H17.41v17.655H.495z"/>
        <path id="e" d="M.495.037H17.41v17.655H.495z"/>
    </defs>
    <g fill="none" fill-rule="evenodd">
        <path fill="#2B4796" d="M504.298 306.426l-577.73-292.39 36.16 296.673 551.36 34.725z"/>
        <path fill="#3B2623" d="M36.554 18.586c-.296.517-.502 1.087-.854 1.57-1.482 2.03-4.978 1.84-6.239 4.015-.574.99-.476 2.325.237 3.221.181.227.412.435.697.488.278.052.56-.05.82-.158a15.994 15.994 0 0 0 5.141-3.406c1.879-1.858 4.397-2.662 5.833-5.272.957-1.74 1.171-2.833-.617-2.996-1.961-.18-4.036.825-5.018 2.538"/>
        <path fill="#F8B4B8" d="M49.812 19.056s3.775.709 6.116 3.1c.363.371.636.817.795 1.31.597 1.851 1.564 7.121-3.05 14.779L46.7 22.824l3.112-3.768z"/>
        <path fill="#F8B4B8" d="M52.65 20.029c.466.24.892.482 1.272.72a5.344 5.344 0 0 1 2.4 5.538l-1.791 7.667c-.67-1.755-.983-3.67-1.215-5.548a98.61 98.61 0 0 1-.666-8.377"/>
        <path fill="#DD5C3D" d="M40.19 19.876l9.041-1.24c1.343.424 2.471.905 3.419 1.393.105 2.8.324 5.596.666 8.377.232 1.877.187 2.725.857 4.48 2.225 4.452-5.142 14.791-5.658 26.843-7.855 7.226-17.452-3.191-17.452-3.191 2.131-7.974 1.384-18.94.99-29.538.843-2.954 8.136-7.124 8.136-7.124"/>
        <path fill="#F8B4B8" d="M.848 86.442s-2.264-1.113-4.084-.94a.668.668 0 0 1-.725-.736c.119-1.207.572-3.31 2.253-4.321.761-.458.992-.17 1.785.233.734.373 2.814 1.177 4.147 1.302C6.56 82.2.848 86.442.848 86.442M61.446 122.62c-.227 2.215.156 6.53 1.202 7.497 0 0-2.338 3.295-6.044.992 0 0 .701-3.619-.31-7.75l5.152-.738z"/>
        <path fill="#E0E0E0" d="M31.066 56.54l-.003-.002s11.66 2.554 17.675.528c0 0 .02 3.139.364 4.984l.203.802v.003l1.001 7.285 9.961 24.199 1.955 29.515s-.249 2.818-5.888 1.106c-2.138-10.846-4.175-21.507-4.29-28.633L38.124 75.25l-7.468 12.973c-4.697 11.467-9.082 8.586-9.082 8.586L.478 86.423c-.293-5.454 1.2-5.237 1.2-5.237 7.864 1.837 15.728 3.672 19.32 5.8l4.267-14.788c2.793-12.16 5.798-15.66 5.798-15.66l.003.001z"/>
        <path fill="#F8B4B8" d="M56.31 46.898l1.927-3.47s3.706-1.573 3.607-.335l-.054.675s1.462-.506 1.281 1.745c-.18 2.25-.236 3.652-1.294 4.088l-2.238.274-1.857.474-1.372-3.45zM41.88 13.018s1.94 5.975-1.7 6.952c0 0 4.093 4.429 6.876 5.89 0 0 1.586-6.04 2.76-7.178l-7.935-5.664z"/>
        <path fill="#F8B4B8" d="M33.206 24.685l4.342-3.138s2.052 7.173.945 12.184l2.823 13.922 14.994-.755 1.372 3.451-18.66 4.188a2.472 2.472 0 0 1-2.91-1.696l-2.68-8.904c-.023-.066-5.644-15.794-.226-19.252z"/>
        <path fill="#ADBBC8" d="M60.623 128.896s-.733-1.225.393-1.573c0 0 .479-.161 1.261.964l.114.93-1.604.203-.164-.524z"/>
        <path fill="#FAFAFB" d="M68.025 130.803l3.177.568s.668.244.615 1.077l-.434.641-3.088.384-4.327-.195-4.157-.694-3.845-.883s.4-2.595.787-3.427c0 0 .506-.568 1.12.604 0 0 .496 1.004 2.222.276 0 0 1.06-1.09 2.183-.867l5.747 2.516z"/>
        <path fill="#2F302F" d="M71.817 132.448l-.001.644s-2.164 1.391-5.297 1.347c0 0-2.51.103-3.799-.406 0 0-1.146-.365-2.296-.015 0 0-2.205.725-3.398.37 0 0-1.529-.331-1.931-1.001 0 0-.139-.763.487-1.356l.384-.33.148-.69 2.772.447 1.488-1.042 3.223.906.71 1.482s5.325 1.012 7.51-.356"/>
        <path fill="#ADBBC8" d="M68.025 130.803l-.435.159a.862.862 0 0 1-.655-.023l-4.802-2.149a.246.246 0 0 1 .015-.456l.13-.047 5.747 2.516z"/>
        <path fill="#0D0D09" d="M63.381 131.48l-.54-.163-1.043.851.501.134zM62.594 131.252l-.541-.162-1.042.85.5.135zM61.806 131.024l-.541-.162-1.042.851.5.134zM61.018 130.797l-.541-.162-1.041.85.5.134z"/>
        <path fill="#FAFAFB" d="M-7.104 89.446l-1.993 2.53s-.529.474-1.243.035l-.364-.683 1.106-2.898 2.202-3.716 2.563-3.332 2.586-2.97s2.112 1.57 2.667 2.3c0 0 .268.713-1.06.704 0 0-1.121-.035-1.286 1.826 0 0 .469 1.443-.254 2.327l-4.924 3.877z"/>
        <path fill="#F8B4B8" d="M40.18 19.97s.179 10.423 6.763 9.708c6.585-.716 2.869-10.622 2.869-10.622l-9.632.914z"/>
        <path fill="#3B2623" d="M53.886 5.365s1.396 3.16.521 4.839L50.166 7.61l3.72-2.245z"/>
        <path fill="#FAC3C7" d="M48.234 21.148c.227.01.355.076.377.082l.002.007c6.202.259 5.793-11.03 5.793-11.03-.643-4.04-2.597-4.235-2.597-4.235-14.568-4.93-10.762 8.483-10.762 8.483-.13.517 3.76 6.913 7.187 6.693"/>
        <g transform="rotate(3 .734 714.977)">
            <mask id="b" fill="#fff">
                <use xlink:href="#a"/>
            </mask>
            <path fill="#3B2623" d="M4.476 1.68S9.142-1.135 13.602.606a4.08 4.08 0 0 1 1.619 1.181c.374.442.938.99 1.567 1.187 0 0 .535.341.613.84.02.126.01.262-.047.406-.184 1.398-1.018 5.932-4.09 6.062-.833.035-1.497.105-2.039.19-1.907 1.753-3.929 2.109-3.929 2.109.319-1.631-.572-2.895-.572-2.895s-.207-1-1.437-.276c0 0-1.128.735-.421 2.167 0 0 1.6 1.223 1.151 2.418.114 1.514.713 2.763-1.4 3.698 0 0-2.796-2.82-3.371-5.136 0 0-3.078-8.108 3.23-10.875" mask="url(#b)"/>
        </g>
        <path fill="#CDCDCD" d="M42.002 8.966s.574-6.064 6.428-7.394c0 0 .965.055 1.595.328 0 0-4.35.032-7.242 7.126l-.781-.06z"/>
        <path fill="#CDCDCD" d="M45.293 11.643l-.377 2.122c-.065.363-.134.739-.346 1.04-.27.382-.73.586-1.183.702-.563.144-1.526.2-2.038-.075-.427-.228-.883-.648-1.094-1.083-.593-1.219-.093-2.728.505-3.944.104-.21.228-.417.4-.576.186-.172.147-.785.382-.879 1.804-.718 4.158.4 3.75 2.693"/>
        <path fill="#F2F2F2" d="M44.647 11.276l-.386 2.172c-.066.372-.137.757-.355 1.065-.276.39-.745.6-1.21.719-.576.147-1.216.179-1.74-.102-.437-.234-.742-.658-.959-1.103a4.639 4.639 0 0 1 .01-4.018c.107-.217.233-.427.41-.591.19-.176.429-.289.67-.384 1.847-.736 3.977-.106 3.56 2.242"/>
        <g>
            <path fill="#3B2623" d="M89.554 242.586c-.296.517-.502 1.087-.854 1.57-1.482 2.03-4.978 1.84-6.239 4.015-.574.99-.476 2.325.237 3.221.181.227.412.435.697.488.278.052.56-.05.82-.158a15.994 15.994 0 0 0 5.141-3.406c1.879-1.858 4.397-2.662 5.833-5.272.957-1.74 1.171-2.833-.617-2.996-1.961-.18-4.036.825-5.018 2.538"/>
            <path fill="#F8B4B8" d="M102.812 243.056s3.775.709 6.116 3.1c.363.371.636.817.795 1.31.597 1.851 1.564 7.121-3.05 14.779L99.7 246.824l3.112-3.768z"/>
            <path fill="#F8B4B8" d="M105.65 244.029c.466.24.892.482 1.272.72a5.344 5.344 0 0 1 2.4 5.538l-1.791 7.667c-.67-1.755-.983-3.67-1.215-5.548a98.61 98.61 0 0 1-.666-8.377"/>
            <path fill="#DD5C3D" d="M93.19 243.876l9.041-1.24c1.343.424 2.471.905 3.419 1.393.105 2.8.324 5.596.666 8.377.232 1.877.187 2.725.857 4.48 2.225 4.452-5.142 14.791-5.658 26.843-7.855 7.226-17.452-3.191-17.452-3.191 2.131-7.974 1.384-18.94.99-29.538.843-2.954 8.136-7.124 8.136-7.124"/>
            <path fill="#F8B4B8" d="M53.848 310.442s-2.264-1.113-4.084-.94a.668.668 0 0 1-.725-.736c.119-1.207.572-3.31 2.253-4.321.761-.458.992-.17 1.785.233.734.373 2.814 1.177 4.147 1.302 2.336.22-3.376 4.462-3.376 4.462"/>
            <path fill="#E0E0E0" d="M84.066 280.54l-.003-.002s11.66 2.554 17.675.528c0 0 .02 3.139.364 4.984l.203.802v.003l1.001 7.285 9.961 24.199 1.955 29.515s-.249 2.818-5.888 1.106c-2.138-10.846-4.175-21.507-4.29-28.633l-13.92-21.076-7.468 12.973c-4.697 11.467-9.082 8.586-9.082 8.586l-21.096-10.387c-.293-5.454 1.2-5.237 1.2-5.237 7.864 1.837 15.728 3.672 19.32 5.8l4.267-14.788c2.793-12.16 5.798-15.66 5.798-15.66l.003.001z"/>
            <path fill="#F8B4B8" d="M109.31 270.898l1.927-3.47s3.706-1.573 3.607-.335l-.054.675s1.462-.506 1.281 1.745c-.18 2.25-.236 3.652-1.294 4.088l-2.238.274-1.857.474-1.372-3.45zM94.88 237.018s1.94 5.975-1.7 6.952c0 0 4.093 4.429 6.876 5.89 0 0 1.586-6.04 2.76-7.178l-7.935-5.664z"/>
            <path fill="#F8B4B8" d="M86.206 248.685l4.342-3.138s2.052 7.173.945 12.184l2.823 13.922 14.994-.755 1.372 3.451-18.66 4.188a2.472 2.472 0 0 1-2.91-1.696l-2.68-8.904c-.023-.066-5.644-15.794-.226-19.252z"/>
            <path fill="#ADBBC8" d="M51.056 307.827s1.429-.07 1.21 1.084c0 0-.082.497-1.446.658l-.878-.337.571-1.507.543.102z"/>
            <path fill="#FAFAFB" d="M45.896 313.446l-1.993 2.53s-.529.474-1.243.035l-.364-.683 1.106-2.898 2.202-3.716 2.563-3.332 2.586-2.97s2.112 1.57 2.667 2.3c0 0 .268.713-1.06.704 0 0-1.121-.035-1.286 1.826 0 0 .469 1.443-.254 2.327l-4.924 3.877z"/>
            <path fill="#2F302F" d="M42.66 316.011l-.57-.303s-.218-2.557 1.29-5.293c0 0 1.085-2.26 2.14-3.154 0 0 .86-.837 1.09-2.013 0 0 .39-2.281 1.263-3.165 0 0 1.01-1.19 1.794-1.23 0 0 .74.237.972 1.065l.114.494.542.454-1.696 2.23.226 1.799-2.314 2.41-1.645-.071s-3.394 4.213-3.206 6.777"/>
            <path fill="#ADBBC8" d="M45.896 313.446l.063-.458a.865.865 0 0 1 .327-.565l4.155-3.218a.248.248 0 0 1 .397.227l-.018.137-4.924 3.877z"/>
            <path fill="#0D0D09" d="M47.473 309.042l.397-.4-.265-1.316-.354.377zM48.044 308.455l.398-.4-.266-1.316-.354.378zM48.615 307.869l.398-.4-.267-1.316-.354.377zM49.186 307.282l.398-.4-.267-1.316-.354.378z"/>
            <path fill="#F8B4B8" d="M93.18 243.97s.179 10.423 6.763 9.708c6.585-.716 2.869-10.622 2.869-10.622l-9.632.914z"/>
            <path fill="#3B2623" d="M106.886 229.365s1.396 3.16.521 4.839l-4.241-2.594 3.72-2.245z"/>
            <path fill="#FAC3C7" d="M101.234 245.148c.227.01.355.076.377.082l.002.007c6.202.259 5.793-11.03 5.793-11.03-.643-4.04-2.597-4.235-2.597-4.235-14.568-4.93-10.762 8.483-10.762 8.483-.13.517 3.76 6.913 7.187 6.693"/>
            <g transform="rotate(3 -4249.873 1838.971)">
                <mask id="d" fill="#fff">
                    <use xlink:href="#c"/>
                </mask>
                <path fill="#3B2623" d="M4.476 1.68S9.142-1.135 13.602.606a4.08 4.08 0 0 1 1.619 1.181c.374.442.938.99 1.567 1.187 0 0 .535.341.613.84.02.126.01.262-.047.406-.184 1.398-1.018 5.932-4.09 6.062-.833.035-1.497.105-2.039.19-1.907 1.753-3.929 2.109-3.929 2.109.319-1.631-.572-2.895-.572-2.895s-.207-1-1.437-.276c0 0-1.128.735-.421 2.167 0 0 1.6 1.223 1.151 2.418.114 1.514.713 2.763-1.4 3.698 0 0-2.796-2.82-3.371-5.136 0 0-3.078-8.108 3.23-10.875" mask="url(#d)"/>
            </g>
            <path fill="#CDCDCD" d="M95.002 232.966s.574-6.064 6.428-7.394c0 0 .965.055 1.595.328 0 0-4.35.032-7.242 7.126l-.781-.06z"/>
            <path fill="#CDCDCD" d="M98.293 235.643l-.377 2.122c-.065.363-.134.739-.346 1.04-.27.382-.73.586-1.183.702-.563.144-1.526.2-2.038-.075-.427-.228-.883-.648-1.094-1.083-.593-1.219-.093-2.728.505-3.944.104-.21.228-.417.4-.576.186-.172.147-.785.382-.879 1.804-.718 4.158.4 3.75 2.693"/>
            <path fill="#F2F2F2" d="M97.647 235.276l-.386 2.172c-.066.372-.137.757-.355 1.065-.276.39-.745.6-1.21.719-.576.147-1.216.179-1.74-.102-.437-.234-.742-.658-.959-1.103a4.639 4.639 0 0 1 .01-4.018c.107-.217.233-.427.41-.591.19-.176.429-.289.67-.384 1.847-.736 3.977-.106 3.56 2.242"/>
        </g>
        <g>
            <path fill="#3B2623" d="M277.554 173.586c-.296.517-.502 1.087-.854 1.57-1.482 2.03-4.978 1.84-6.239 4.015-.574.99-.476 2.325.237 3.221.181.227.412.435.697.488.278.052.56-.05.82-.158a15.994 15.994 0 0 0 5.141-3.406c1.879-1.858 4.397-2.662 5.833-5.272.957-1.74 1.171-2.833-.617-2.996-1.961-.18-4.036.825-5.018 2.538"/>
            <path fill="#F8B4B8" d="M290.812 174.056s3.775.709 6.116 3.1c.363.371.636.817.795 1.31.597 1.851 1.564 7.121-3.05 14.779l-6.973-15.421 3.112-3.768z"/>
            <path fill="#F8B4B8" d="M293.65 175.029c.466.24.892.482 1.272.72a5.344 5.344 0 0 1 2.4 5.538l-1.791 7.667c-.67-1.755-.983-3.67-1.215-5.548a98.61 98.61 0 0 1-.666-8.377"/>
            <path fill="#DD5C3D" d="M281.19 174.876l9.041-1.24c1.343.424 2.471.905 3.419 1.393.105 2.8.324 5.596.666 8.377.232 1.877.187 2.725.857 4.48 2.225 4.452-5.142 14.791-5.658 26.843-7.855 7.226-17.452-3.191-17.452-3.191 2.131-7.974 1.384-18.94.99-29.538.843-2.954 8.136-7.124 8.136-7.124"/>
            <path fill="#F8B4B8" d="M241.848 241.442s-2.264-1.113-4.084-.94a.668.668 0 0 1-.725-.736c.119-1.207.572-3.31 2.253-4.321.761-.458.992-.17 1.785.233.734.373 2.814 1.177 4.147 1.302 2.336.22-3.376 4.462-3.376 4.462M302.446 277.62c-.227 2.215.156 6.53 1.202 7.497 0 0-2.338 3.295-6.044.992 0 0 .701-3.619-.31-7.75l5.152-.738z"/>
            <path fill="#E0E0E0" d="M272.066 211.54l-.003-.002s11.66 2.554 17.675.528c0 0 .02 3.139.364 4.984l.203.802v.003l1.001 7.285 9.961 24.199 1.955 29.515s-.249 2.818-5.888 1.106c-2.138-10.846-4.175-21.507-4.29-28.633l-13.92-21.076-7.468 12.973c-4.697 11.467-9.082 8.586-9.082 8.586l-21.096-10.387c-.293-5.454 1.2-5.237 1.2-5.237 7.864 1.837 15.728 3.672 19.32 5.8l4.267-14.788c2.793-12.16 5.798-15.66 5.798-15.66l.003.001z"/>
            <path fill="#F8B4B8" d="M297.31 201.898l1.927-3.47s3.706-1.573 3.607-.335l-.054.675s1.462-.506 1.281 1.745c-.18 2.25-.236 3.652-1.294 4.088l-2.238.274-1.857.474-1.372-3.45zM282.88 168.018s1.94 5.975-1.7 6.952c0 0 4.093 4.429 6.876 5.89 0 0 1.586-6.04 2.76-7.178l-7.935-5.664z"/>
            <path fill="#F8B4B8" d="M274.206 179.685l4.342-3.138s2.052 7.173.945 12.184l2.823 13.922 14.994-.755 1.372 3.451-18.66 4.188a2.472 2.472 0 0 1-2.91-1.696l-2.68-8.904c-.023-.066-5.644-15.794-.226-19.252z"/>
            <path fill="#ADBBC8" d="M301.623 283.896s-.733-1.225.393-1.573c0 0 .479-.161 1.261.964l.114.93-1.604.203-.164-.524z"/>
            <path fill="#FAFAFB" d="M309.025 285.803l3.177.568s.668.244.615 1.077l-.434.641-3.088.384-4.327-.195-4.157-.694-3.845-.883s.4-2.595.787-3.427c0 0 .506-.568 1.12.604 0 0 .496 1.004 2.222.276 0 0 1.06-1.09 2.183-.867l5.747 2.516z"/>
            <path fill="#2F302F" d="M312.817 287.448l-.001.644s-2.164 1.391-5.297 1.347c0 0-2.51.103-3.799-.406 0 0-1.146-.365-2.296-.015 0 0-2.205.725-3.398.37 0 0-1.529-.331-1.931-1.001 0 0-.139-.763.487-1.356l.384-.33.148-.69 2.772.447 1.488-1.042 3.223.906.71 1.482s5.325 1.012 7.51-.356"/>
            <path fill="#ADBBC8" d="M309.025 285.803l-.435.159a.862.862 0 0 1-.655-.023l-4.802-2.149a.246.246 0 0 1 .015-.456l.13-.047 5.747 2.516z"/>
            <path fill="#0D0D09" d="M304.381 286.48l-.54-.163-1.043.851.501.134zM303.594 286.252l-.541-.162-1.042.85.5.135zM302.806 286.024l-.541-.162-1.042.851.5.134zM302.018 285.797l-.541-.162-1.041.85.5.134z"/>
            <path fill="#ADBBC8" d="M239.056 238.827s1.429-.07 1.21 1.084c0 0-.082.497-1.446.658l-.878-.337.571-1.507.543.102z"/>
            <path fill="#FAFAFB" d="M233.896 244.446l-1.993 2.53s-.529.474-1.243.035l-.364-.683 1.106-2.898 2.202-3.716 2.563-3.332 2.586-2.97s2.112 1.57 2.667 2.3c0 0 .268.713-1.06.704 0 0-1.121-.035-1.286 1.826 0 0 .469 1.443-.254 2.327l-4.924 3.877z"/>
            <path fill="#2F302F" d="M230.66 247.011l-.57-.303s-.218-2.557 1.29-5.293c0 0 1.085-2.26 2.14-3.154 0 0 .86-.837 1.09-2.013 0 0 .39-2.281 1.263-3.165 0 0 1.01-1.19 1.794-1.23 0 0 .74.237.972 1.065l.114.494.542.454-1.696 2.23.226 1.799-2.314 2.41-1.645-.071s-3.394 4.213-3.206 6.777"/>
            <path fill="#ADBBC8" d="M233.896 244.446l.063-.458a.865.865 0 0 1 .327-.565l4.155-3.218a.248.248 0 0 1 .397.227l-.018.137-4.924 3.877z"/>
            <path fill="#0D0D09" d="M235.473 240.042l.397-.4-.265-1.316-.354.377zM236.044 239.455l.398-.4-.266-1.316-.354.378zM236.615 238.869l.398-.4-.267-1.316-.354.377zM237.186 238.282l.398-.4-.267-1.316-.354.378z"/>
            <path fill="#F8B4B8" d="M281.18 174.97s.179 10.423 6.763 9.708c6.585-.716 2.869-10.622 2.869-10.622l-9.632.914z"/>
            <path fill="#3B2623" d="M294.886 160.365s1.396 3.16.521 4.839l-4.241-2.594 3.72-2.245z"/>
            <path fill="#FAC3C7" d="M289.234 176.148c.227.01.355.076.377.082l.002.007c6.202.259 5.793-11.03 5.793-11.03-.643-4.04-2.597-4.235-2.597-4.235-14.568-4.93-10.762 8.483-10.762 8.483-.13.517 3.76 6.913 7.187 6.693"/>
            <g transform="rotate(3 -2838.371 5394.186)">
                <mask id="f" fill="#fff">
                    <use xlink:href="#e"/>
                </mask>
                <path fill="#3B2623" d="M4.476 1.68S9.142-1.135 13.602.606a4.08 4.08 0 0 1 1.619 1.181c.374.442.938.99 1.567 1.187 0 0 .535.341.613.84.02.126.01.262-.047.406-.184 1.398-1.018 5.932-4.09 6.062-.833.035-1.497.105-2.039.19-1.907 1.753-3.929 2.109-3.929 2.109.319-1.631-.572-2.895-.572-2.895s-.207-1-1.437-.276c0 0-1.128.735-.421 2.167 0 0 1.6 1.223 1.151 2.418.114 1.514.713 2.763-1.4 3.698 0 0-2.796-2.82-3.371-5.136 0 0-3.078-8.108 3.23-10.875" mask="url(#f)"/>
            </g>
            <path fill="#CDCDCD" d="M283.002 163.966s.574-6.064 6.428-7.394c0 0 .965.055 1.595.328 0 0-4.35.032-7.242 7.126l-.781-.06z"/>
            <path fill="#CDCDCD" d="M286.293 166.643l-.377 2.122c-.065.363-.134.739-.346 1.04-.27.382-.73.586-1.183.702-.563.144-1.526.2-2.038-.075-.427-.228-.883-.648-1.094-1.083-.593-1.219-.093-2.728.505-3.944.104-.21.228-.417.4-.576.186-.172.147-.785.382-.879 1.804-.718 4.158.4 3.75 2.693"/>
            <path fill="#F2F2F2" d="M285.647 166.276l-.386 2.172c-.066.372-.137.757-.355 1.065-.276.39-.745.6-1.21.719-.576.147-1.216.179-1.74-.102-.437-.234-.742-.658-.959-1.103a4.639 4.639 0 0 1 .01-4.018c.107-.217.233-.427.41-.591.19-.176.429-.289.67-.384 1.847-.736 3.977-.106 3.56 2.242"/>
        </g>
    </g>
</svg>
